<?xml version="1.0" encoding="UTF-8" standalone="no"?>
<!DOCTYPE svg PUBLIC "-//W3C//DTD SVG 1.1//EN" "http://www.w3.org/Graphics/SVG/1.1/DTD/svg11.dtd">
<svg version="1.1" xmlns="http://www.w3.org/2000/svg" xmlns:xlink="http://www.w3.org/1999/xlink" preserveAspectRatio="xMidYMid meet" viewBox="-1.666830558426053 -1.0124999999990862 645.2961611168514 643.9749990518812" width="128" height="127.74"><defs><path d="M577.5 284.44C514.15 284.44 482.41 207.85 527.21 163.05C529.12 161.14 544.35 145.89 546.25 143.99C559.63 129.62 558.83 107.12 544.46 93.74C530.81 81.03 509.65 81.03 496 93.75C494.09 95.65 478.85 110.87 476.95 112.78C432.15 157.56 355.56 125.84 355.56 62.49C355.56 59.79 355.56 38.24 355.56 35.55C355.56 15.91 339.64 -0.01 320 -0.01C300.36 -0.01 284.44 15.91 284.44 35.55C284.44 38.25 284.44 59.81 284.44 62.5C284.44 125.85 207.85 157.58 163.05 112.79C161.14 110.88 145.9 95.65 144 93.75C129.64 80.37 107.14 81.16 93.76 95.52C81.04 109.17 81.03 130.33 93.75 143.99C95.66 145.89 110.91 161.14 112.81 163.05C157.61 207.85 125.87 284.44 62.52 284.44C59.83 284.44 38.26 284.44 35.56 284.44C15.93 284.07 -0.29 299.69 -0.66 319.33C-1.03 338.96 14.59 355.18 34.23 355.55C34.67 355.56 35.12 355.56 35.56 355.55C38.26 355.55 59.81 355.55 62.5 355.55C125.85 355.55 157.59 432.15 112.79 476.95C110.88 478.86 95.65 494.1 93.75 496C80.45 510.45 81.38 532.95 95.83 546.25C109.44 558.78 130.39 558.78 144 546.25C145.9 544.34 161.14 529.09 163.05 527.19C207.85 482.39 284.44 514.13 284.44 577.48C284.44 580.17 284.44 601.71 284.44 604.4C284.44 624.04 300.36 639.96 320 639.96C339.64 639.96 355.56 624.04 355.56 604.4C355.56 601.71 355.56 580.19 355.56 577.5C355.56 514.15 432.15 482.41 476.95 527.21C478.85 529.12 494.09 544.35 496 546.25C510.45 559.55 532.95 558.62 546.25 544.17C558.78 530.56 558.78 509.61 546.25 496C544.34 494.1 529.09 478.86 527.19 476.95C482.39 432.15 514.12 355.55 577.47 355.55C580.17 355.55 601.71 355.55 604.4 355.55C624.04 355.92 640.25 340.3 640.62 320.66C640.99 301.02 625.37 284.81 605.73 284.44C605.29 284.43 604.84 284.43 604.4 284.44C604.41 284.44 580.19 284.44 577.5 284.44ZM220 280C220 246.86 246.86 220 280 220C313.14 220 340 246.86 340 280C340 313.14 313.14 340 280 340C246.86 340 220 313.14 220 280ZM350 380C350 363.43 363.43 350 380 350C396.57 350 410 363.43 410 380C410 396.57 396.57 410 380 410C363.43 410 350 396.57 350 380Z" id="amZYR7HqO"></path></defs><g><g><use xlink:href="#amZYR7HqO" opacity="1" fill="#9b0924" fill-opacity="1"></use><g><use xlink:href="#amZYR7HqO" opacity="1" fill-opacity="0" stroke="#000000" stroke-width="1" stroke-opacity="0"></use></g></g></g></svg>